<mxfile host="Electron" modified="2023-09-17T09:49:21.878Z" agent="Mozilla/5.0 (X11; Linux x86_64) AppleWebKit/537.36 (KHTML, like Gecko) draw.io/21.6.8 Chrome/114.0.5735.289 Electron/25.5.0 Safari/537.36" etag="psRJqQHob_XEn1mvG2Qq" version="21.6.8" type="device">
  <diagram name="Page-1" id="gUr6Gk0GwjmOe10-43yY">
    <mxGraphModel dx="1687" dy="1033" grid="1" gridSize="10" guides="1" tooltips="1" connect="1" arrows="1" fold="1" page="1" pageScale="1" pageWidth="16000" pageHeight="16000" background="none" math="0" shadow="0">
      <root>
        <mxCell id="0" />
        <mxCell id="1" parent="0" />
        <mxCell id="HajdJlI4ehWmvmJ5Dq7f-1" value="preIFReg" style="rounded=0;whiteSpace=wrap;html=1;fillColor=#dae8fc;strokeColor=#6c8ebf;" vertex="1" parent="1">
          <mxGeometry x="580" y="400" width="60" height="410" as="geometry" />
        </mxCell>
        <mxCell id="HajdJlI4ehWmvmJ5Dq7f-5" value="IF2IDReg" style="rounded=0;whiteSpace=wrap;html=1;fillColor=#dae8fc;strokeColor=#6c8ebf;" vertex="1" parent="1">
          <mxGeometry x="800" y="400" width="70" height="410" as="geometry" />
        </mxCell>
        <mxCell id="HajdJlI4ehWmvmJ5Dq7f-24" value="ID2EXReg" style="rounded=0;whiteSpace=wrap;html=1;fillColor=#dae8fc;strokeColor=#6c8ebf;" vertex="1" parent="1">
          <mxGeometry x="1170" y="400" width="70" height="410" as="geometry" />
        </mxCell>
        <mxCell id="HajdJlI4ehWmvmJ5Dq7f-29" value="EX2LSReg" style="rounded=0;whiteSpace=wrap;html=1;fillColor=#dae8fc;strokeColor=#6c8ebf;" vertex="1" parent="1">
          <mxGeometry x="1400" y="400" width="70" height="410" as="geometry" />
        </mxCell>
        <mxCell id="HajdJlI4ehWmvmJ5Dq7f-30" value="IFU" style="swimlane;whiteSpace=wrap;html=1;" vertex="1" parent="1">
          <mxGeometry x="660" y="370" width="120" height="450" as="geometry" />
        </mxCell>
        <mxCell id="HajdJlI4ehWmvmJ5Dq7f-2" value="Inst Mem" style="rounded=0;whiteSpace=wrap;html=1;fillColor=#ffe6cc;strokeColor=#d79b00;" vertex="1" parent="HajdJlI4ehWmvmJ5Dq7f-30">
          <mxGeometry x="20" y="95" width="80" height="80" as="geometry" />
        </mxCell>
        <mxCell id="HajdJlI4ehWmvmJ5Dq7f-6" value="snpc" style="rounded=0;whiteSpace=wrap;html=1;fillColor=#ffe6cc;strokeColor=#d79b00;" vertex="1" parent="HajdJlI4ehWmvmJ5Dq7f-30">
          <mxGeometry x="20" y="290" width="80" height="80" as="geometry" />
        </mxCell>
        <mxCell id="HajdJlI4ehWmvmJ5Dq7f-31" value="IDU" style="swimlane;whiteSpace=wrap;html=1;" vertex="1" parent="1">
          <mxGeometry x="890" y="332.5" width="260" height="490" as="geometry" />
        </mxCell>
        <mxCell id="HajdJlI4ehWmvmJ5Dq7f-15" value="ImmGen" style="rounded=0;whiteSpace=wrap;html=1;fillColor=#ffe6cc;strokeColor=#d79b00;" vertex="1" parent="HajdJlI4ehWmvmJ5Dq7f-31">
          <mxGeometry x="30" y="190" width="80" height="80" as="geometry" />
        </mxCell>
        <mxCell id="HajdJlI4ehWmvmJ5Dq7f-16" value="GPR" style="rounded=0;whiteSpace=wrap;html=1;fillColor=#ffe6cc;strokeColor=#d79b00;" vertex="1" parent="HajdJlI4ehWmvmJ5Dq7f-31">
          <mxGeometry x="30" y="290" width="80" height="80" as="geometry" />
        </mxCell>
        <mxCell id="HajdJlI4ehWmvmJ5Dq7f-17" value="CSR" style="rounded=0;whiteSpace=wrap;html=1;fillColor=#ffe6cc;strokeColor=#d79b00;" vertex="1" parent="HajdJlI4ehWmvmJ5Dq7f-31">
          <mxGeometry x="30" y="380" width="80" height="80" as="geometry" />
        </mxCell>
        <mxCell id="HajdJlI4ehWmvmJ5Dq7f-19" value="CSR Forward" style="rounded=0;whiteSpace=wrap;html=1;fillColor=#ffe6cc;strokeColor=#d79b00;" vertex="1" parent="HajdJlI4ehWmvmJ5Dq7f-31">
          <mxGeometry x="125" y="380" width="120" height="80" as="geometry" />
        </mxCell>
        <mxCell id="HajdJlI4ehWmvmJ5Dq7f-18" value="GPR Forward" style="rounded=0;whiteSpace=wrap;html=1;fillColor=#ffe6cc;strokeColor=#d79b00;" vertex="1" parent="HajdJlI4ehWmvmJ5Dq7f-31">
          <mxGeometry x="125" y="290" width="120" height="80" as="geometry" />
        </mxCell>
        <mxCell id="HajdJlI4ehWmvmJ5Dq7f-32" value="Control Unit" style="swimlane;whiteSpace=wrap;html=1;" vertex="1" parent="HajdJlI4ehWmvmJ5Dq7f-31">
          <mxGeometry x="15" y="30" width="230" height="140" as="geometry" />
        </mxCell>
        <mxCell id="HajdJlI4ehWmvmJ5Dq7f-13" value="Controller" style="rounded=0;whiteSpace=wrap;html=1;fillColor=#ffe6cc;strokeColor=#d79b00;" vertex="1" parent="HajdJlI4ehWmvmJ5Dq7f-32">
          <mxGeometry x="10" y="40" width="80" height="80" as="geometry" />
        </mxCell>
        <mxCell id="HajdJlI4ehWmvmJ5Dq7f-14" value="CSR Controller" style="rounded=0;whiteSpace=wrap;html=1;fillColor=#ffe6cc;strokeColor=#d79b00;" vertex="1" parent="HajdJlI4ehWmvmJ5Dq7f-32">
          <mxGeometry x="100" y="40" width="120" height="80" as="geometry" />
        </mxCell>
        <mxCell id="HajdJlI4ehWmvmJ5Dq7f-33" value="EXU" style="swimlane;whiteSpace=wrap;html=1;" vertex="1" parent="1">
          <mxGeometry x="1260" y="360" width="120" height="460" as="geometry" />
        </mxCell>
        <mxCell id="HajdJlI4ehWmvmJ5Dq7f-25" value="ALU" style="rounded=0;whiteSpace=wrap;html=1;fillColor=#ffe6cc;strokeColor=#d79b00;" vertex="1" parent="HajdJlI4ehWmvmJ5Dq7f-33">
          <mxGeometry x="20" y="40" width="80" height="80" as="geometry" />
        </mxCell>
        <mxCell id="HajdJlI4ehWmvmJ5Dq7f-26" value="MUL" style="rounded=0;whiteSpace=wrap;html=1;fillColor=#ffe6cc;strokeColor=#d79b00;" vertex="1" parent="HajdJlI4ehWmvmJ5Dq7f-33">
          <mxGeometry x="20" y="140" width="80" height="80" as="geometry" />
        </mxCell>
        <mxCell id="HajdJlI4ehWmvmJ5Dq7f-28" value="CSR Calc" style="rounded=0;whiteSpace=wrap;html=1;fillColor=#ffe6cc;strokeColor=#d79b00;" vertex="1" parent="HajdJlI4ehWmvmJ5Dq7f-33">
          <mxGeometry x="20" y="240" width="80" height="80" as="geometry" />
        </mxCell>
        <mxCell id="HajdJlI4ehWmvmJ5Dq7f-38" value="dnpc" style="rounded=0;whiteSpace=wrap;html=1;fillColor=#ffe6cc;strokeColor=#d79b00;" vertex="1" parent="HajdJlI4ehWmvmJ5Dq7f-33">
          <mxGeometry x="20" y="340" width="80" height="80" as="geometry" />
        </mxCell>
        <mxCell id="HajdJlI4ehWmvmJ5Dq7f-40" value="LSU" style="swimlane;whiteSpace=wrap;html=1;" vertex="1" parent="1">
          <mxGeometry x="1490" y="372.5" width="100" height="447.5" as="geometry" />
        </mxCell>
        <mxCell id="HajdJlI4ehWmvmJ5Dq7f-39" value="Data Mem" style="rounded=0;whiteSpace=wrap;html=1;fillColor=#ffe6cc;strokeColor=#d79b00;" vertex="1" parent="HajdJlI4ehWmvmJ5Dq7f-40">
          <mxGeometry x="10" y="192.5" width="80" height="80" as="geometry" />
        </mxCell>
        <mxCell id="HajdJlI4ehWmvmJ5Dq7f-41" value="LS2WBReg" style="rounded=0;whiteSpace=wrap;html=1;fillColor=#dae8fc;strokeColor=#6c8ebf;" vertex="1" parent="1">
          <mxGeometry x="1620" y="400" width="70" height="410" as="geometry" />
        </mxCell>
        <mxCell id="HajdJlI4ehWmvmJ5Dq7f-44" value="WBU" style="swimlane;whiteSpace=wrap;html=1;" vertex="1" parent="1">
          <mxGeometry x="1710" y="380" width="100" height="440" as="geometry" />
        </mxCell>
        <mxCell id="HajdJlI4ehWmvmJ5Dq7f-43" value="WB" style="shape=trapezoid;perimeter=trapezoidPerimeter;whiteSpace=wrap;html=1;fixedSize=1;rotation=90;fillColor=#ffe6cc;strokeColor=#d79b00;" vertex="1" parent="HajdJlI4ehWmvmJ5Dq7f-44">
          <mxGeometry x="-10" y="195" width="120" height="60" as="geometry" />
        </mxCell>
        <mxCell id="HajdJlI4ehWmvmJ5Dq7f-47" value="PC" style="shape=trapezoid;perimeter=trapezoidPerimeter;whiteSpace=wrap;html=1;fixedSize=1;rotation=90;fillColor=#ffe6cc;strokeColor=#d79b00;" vertex="1" parent="1">
          <mxGeometry x="460" y="566.25" width="120" height="60" as="geometry" />
        </mxCell>
        <mxCell id="HajdJlI4ehWmvmJ5Dq7f-51" value="Hazard Unit" style="swimlane;horizontal=0;whiteSpace=wrap;html=1;" vertex="1" parent="1">
          <mxGeometry x="890" y="850" width="260" height="120" as="geometry" />
        </mxCell>
        <mxCell id="HajdJlI4ehWmvmJ5Dq7f-49" value="Hazard" style="rounded=0;whiteSpace=wrap;html=1;fillColor=#ffe6cc;strokeColor=#d79b00;" vertex="1" parent="HajdJlI4ehWmvmJ5Dq7f-51">
          <mxGeometry x="45" y="20" width="80" height="80" as="geometry" />
        </mxCell>
        <mxCell id="HajdJlI4ehWmvmJ5Dq7f-50" value="CSR Hazard" style="rounded=0;whiteSpace=wrap;html=1;fillColor=#ffe6cc;strokeColor=#d79b00;" vertex="1" parent="HajdJlI4ehWmvmJ5Dq7f-51">
          <mxGeometry x="160" y="20" width="80" height="80" as="geometry" />
        </mxCell>
      </root>
    </mxGraphModel>
  </diagram>
</mxfile>
